<mxfile host="app.diagrams.net" modified="2023-11-26T23:37:04.087Z" agent="Mozilla/5.0 (Windows NT 10.0; Win64; x64) AppleWebKit/537.36 (KHTML, like Gecko) Chrome/119.0.0.0 Safari/537.36" etag="nXymYZ-P7JbcBpfkn8js" version="22.1.4" type="device">
  <diagram name="Page-1" id="nlCo7uOTXH8S5-hPUu7m">
    <mxGraphModel dx="1050" dy="587" grid="1" gridSize="10" guides="1" tooltips="1" connect="1" arrows="1" fold="1" page="1" pageScale="1" pageWidth="850" pageHeight="1100" math="0" shadow="0">
      <root>
        <mxCell id="0" />
        <mxCell id="1" parent="0" />
        <mxCell id="1v_EZ-CLWt01RcDr0w3T-3" value="Database&lt;br&gt;Atlas MongoDB" style="verticalAlign=top;align=left;spacingTop=8;spacingLeft=2;spacingRight=12;shape=cube;size=10;direction=south;fontStyle=4;html=1;whiteSpace=wrap;fillColor=#72C9F7;" parent="1" vertex="1">
          <mxGeometry x="499.5" y="612.75" width="160" height="130" as="geometry" />
        </mxCell>
        <mxCell id="1v_EZ-CLWt01RcDr0w3T-4" value="tcp/ip" style="text;html=1;align=center;verticalAlign=middle;resizable=0;points=[];autosize=1;strokeColor=none;fillColor=none;" parent="1" vertex="1">
          <mxGeometry x="375" y="650" width="50" height="30" as="geometry" />
        </mxCell>
        <mxCell id="y9guBKbFsz0AJxuNfq-v-1" value="10.9.10.58:4000&lt;br&gt;Linux VM DEI" style="verticalAlign=top;align=left;spacingTop=8;spacingLeft=2;spacingRight=12;shape=cube;size=10;direction=south;fontStyle=4;html=1;whiteSpace=wrap;fillColor=#72C9F7;" parent="1" vertex="1">
          <mxGeometry x="112" y="595.5" width="225" height="164.5" as="geometry" />
        </mxCell>
        <mxCell id="y9guBKbFsz0AJxuNfq-v-2" value="" style="endArrow=none;html=1;rounded=0;exitX=0;exitY=0;exitDx=0;exitDy=107.5;exitPerimeter=0;entryX=0;entryY=0;entryDx=164.5;entryDy=117.5;entryPerimeter=0;" parent="1" source="y9guBKbFsz0AJxuNfq-v-1" target="y9guBKbFsz0AJxuNfq-v-11" edge="1">
          <mxGeometry width="50" height="50" relative="1" as="geometry">
            <mxPoint x="360" y="520" as="sourcePoint" />
            <mxPoint x="410" y="470" as="targetPoint" />
          </mxGeometry>
        </mxCell>
        <mxCell id="-xqnAD-rzFhGNI5JszeZ-1" value="«component»&lt;br&gt;&lt;b&gt;MDRoboISEP&lt;/b&gt;" style="html=1;dropTarget=0;whiteSpace=wrap;fillColor=#72C9F7;" parent="1" vertex="1">
          <mxGeometry x="144.5" y="650" width="160" height="80" as="geometry" />
        </mxCell>
        <mxCell id="-xqnAD-rzFhGNI5JszeZ-2" value="" style="shape=module;jettyWidth=8;jettyHeight=4;fillColor=#72C9F7;" parent="-xqnAD-rzFhGNI5JszeZ-1" vertex="1">
          <mxGeometry x="1" width="20" height="20" relative="1" as="geometry">
            <mxPoint x="-27" y="7" as="offset" />
          </mxGeometry>
        </mxCell>
        <mxCell id="y9guBKbFsz0AJxuNfq-v-3" value="" style="endArrow=none;html=1;rounded=0;exitX=0.499;exitY=0.001;exitDx=0;exitDy=0;exitPerimeter=0;entryX=0.504;entryY=1.003;entryDx=0;entryDy=0;entryPerimeter=0;" parent="1" source="y9guBKbFsz0AJxuNfq-v-1" target="1v_EZ-CLWt01RcDr0w3T-3" edge="1">
          <mxGeometry width="50" height="50" relative="1" as="geometry">
            <mxPoint x="331" y="677.75" as="sourcePoint" />
            <mxPoint x="474" y="678" as="targetPoint" />
          </mxGeometry>
        </mxCell>
        <mxCell id="y9guBKbFsz0AJxuNfq-v-4" value="tcp/ip" style="text;html=1;align=center;verticalAlign=middle;resizable=0;points=[];autosize=1;strokeColor=none;fillColor=none;" parent="1" vertex="1">
          <mxGeometry x="231" y="547" width="50" height="30" as="geometry" />
        </mxCell>
        <mxCell id="y9guBKbFsz0AJxuNfq-v-8" value="tcp/ip" style="text;html=1;align=center;verticalAlign=middle;resizable=0;points=[];autosize=1;strokeColor=none;fillColor=none;" parent="1" vertex="1">
          <mxGeometry x="400" y="520" width="50" height="30" as="geometry" />
        </mxCell>
        <mxCell id="y9guBKbFsz0AJxuNfq-v-9" value="" style="endArrow=none;html=1;rounded=0;exitX=0;exitY=0;exitDx=0;exitDy=0;exitPerimeter=0;entryX=1;entryY=1;entryDx=0;entryDy=0;entryPerimeter=0;" parent="1" edge="1" target="y9guBKbFsz0AJxuNfq-v-10" source="y9guBKbFsz0AJxuNfq-v-1">
          <mxGeometry width="50" height="50" relative="1" as="geometry">
            <mxPoint x="360" y="610" as="sourcePoint" />
            <mxPoint x="480" y="610" as="targetPoint" />
          </mxGeometry>
        </mxCell>
        <mxCell id="y9guBKbFsz0AJxuNfq-v-10" value="10.9.11.58:8000&lt;br&gt;Windows VM DEI" style="verticalAlign=top;align=left;spacingTop=8;spacingLeft=2;spacingRight=12;shape=cube;size=10;direction=south;fontStyle=4;html=1;whiteSpace=wrap;fillColor=#72C9F7;" parent="1" vertex="1">
          <mxGeometry x="467" y="277" width="225" height="164.5" as="geometry" />
        </mxCell>
        <mxCell id="y9guBKbFsz0AJxuNfq-v-6" value="«component»&lt;br&gt;&lt;b&gt;Planeamento&lt;/b&gt;" style="html=1;dropTarget=0;whiteSpace=wrap;fillColor=#72C9F7;" parent="1" vertex="1">
          <mxGeometry x="499.5" y="331" width="160" height="80" as="geometry" />
        </mxCell>
        <mxCell id="y9guBKbFsz0AJxuNfq-v-7" value="" style="shape=module;jettyWidth=8;jettyHeight=4;fillColor=#72C9F7;" parent="y9guBKbFsz0AJxuNfq-v-6" vertex="1">
          <mxGeometry x="1" width="20" height="20" relative="1" as="geometry">
            <mxPoint x="-27" y="7" as="offset" />
          </mxGeometry>
        </mxCell>
        <mxCell id="y9guBKbFsz0AJxuNfq-v-11" value="localhost:4200" style="verticalAlign=top;align=left;spacingTop=8;spacingLeft=2;spacingRight=12;shape=cube;size=10;direction=south;fontStyle=4;html=1;whiteSpace=wrap;fillColor=#72C9F7;" parent="1" vertex="1">
          <mxGeometry x="122" y="277.75" width="225" height="164.5" as="geometry" />
        </mxCell>
        <mxCell id="1v_EZ-CLWt01RcDr0w3T-5" value="«component»&lt;br&gt;&lt;b&gt;Frontend&lt;/b&gt;" style="html=1;dropTarget=0;whiteSpace=wrap;fillColor=#72C9F7;" parent="1" vertex="1">
          <mxGeometry x="144.5" y="335.25" width="160" height="80" as="geometry" />
        </mxCell>
        <mxCell id="1v_EZ-CLWt01RcDr0w3T-6" value="" style="shape=module;jettyWidth=8;jettyHeight=4;fillColor=#72C9F7;" parent="1v_EZ-CLWt01RcDr0w3T-5" vertex="1">
          <mxGeometry x="1" width="20" height="20" relative="1" as="geometry">
            <mxPoint x="-27" y="7" as="offset" />
          </mxGeometry>
        </mxCell>
      </root>
    </mxGraphModel>
  </diagram>
</mxfile>
